<?xml version="1.0" encoding="utf-8"?>
<!-- Generator: Adobe Illustrator 16.0.0, SVG Export Plug-In . SVG Version: 6.00 Build 0)  -->
<!DOCTYPE svg PUBLIC "-//W3C//DTD SVG 1.1//EN" "http://www.w3.org/Graphics/SVG/1.1/DTD/svg11.dtd">
<svg version="1.1" id="cat1_1_" xmlns="http://www.w3.org/2000/svg" xmlns:xlink="http://www.w3.org/1999/xlink" x="0px" y="0px"
	 width="328.35px" height="500px" viewBox="0 0 328.35 500" enable-background="new 0 0 328.35 500" xml:space="preserve">
<ellipse transform="matrix(0.9673 0.2537 -0.2537 0.9673 106.9963 -13.7831)" fill="#D2CCBD" cx="106.94" cy="407.969" rx="12.301" ry="17.903"/>
<circle fill="#D2CCBD" cx="128.35" cy="413.7" r="12.3"/>
<circle fill="#D2CCBD" cx="117.25" cy="417.9" r="12.3"/>
<path fill="#938160" d="M257.85,289.5c0,68.6-56.3,122.4-120.3,123.3c-47.8,0.7-108.7-54.8-111.7-123.3
	c-4.3-99.2,48.604-139.2,112.7-139.2C202.652,150.3,257.85,220.9,257.85,289.5z"/>
<circle id="tail" fill="#938160" cx="48.05" cy="216.8" r="29.5"/>
<ellipse transform="matrix(0.9327 0.3607 -0.3607 0.9327 168.2663 -25.6383)" fill="#D2CCBD" cx="152.822" cy="437.989" rx="12.201" ry="16.302"/>
<path fill="#D2CCBD" d="M185.652,447.8c-2.603,6.699-9.803,10.199-16.103,7.8c-6.3-2.396-9.3-9.8-6.7-16.601
	c2.604-6.699,9.803-10.199,16.104-7.799C185.25,433.701,188.25,441.1,185.652,447.8z"/>
<ellipse transform="matrix(0.9326 0.3609 -0.3609 0.9326 172.1887 -28.6011)" fill="#D2CCBD" cx="162.683" cy="446.792" rx="12.198" ry="13.099"/>
<path fill="#D2CCBD" d="M94.55,387.9c0,0,38,24.396,46.7,41.801c12.602,25.199,47,22.199,45.8,5.799
	c-2.101-28.9-22.397-53.7-22.397-53.7L94.55,387.9z"/>
<path fill="#D2CCBD" d="M260.05,431.4c3.2,7.694,11.7,11.801,19.103,9.1c7.302-2.6,10.697-11,7.5-18.699
	c-3.198-7.699-11.698-11.801-19.103-9.1C260.25,415.4,256.85,423.701,260.05,431.4z"/>
<path fill="#D2CCBD" d="M240.951,435.8c2.601,6.7,9.801,10.2,16.101,7.8c6.302-2.396,9.302-9.8,6.7-16.601
	c-2.603-6.699-9.801-10.199-16.103-7.798C241.35,421.701,238.35,429.1,240.951,435.8z"/>
<ellipse transform="matrix(-0.9326 0.3608 -0.3608 -0.9326 667.0845 745.1189)" fill="#D2CCBD" cx="263.985" cy="434.833" rx="12.197" ry="13.098"/>
<path fill="#D2CCBD" d="M301.05,355.3c0,0-14,32.5-16.5,58.5c-2.7,28-42.3,25.9-45,9.699c-5-30.199-1-54.199-1-54.199L301.05,355.3z
	"/>
<path fill="#F0F0E6" d="M282.25,387.8c-44.4,55.104-124.104,55.5-178,0.9C50.449,334,42.75,245.1,87.05,190
	c44.396-55.1,124.103-55.5,178-0.9C318.95,243.7,326.65,332.701,282.25,387.8z"/>
<path fill="#C2AB81" d="M130.451,326.6c0,0-12.302,27.301-5.198,55.301c7.102,28,23.102,37.104,23.102,37.104S38.85,392,53.75,262
	c14.897-130,156.397-128.8,207.5-85.3c89.601,76.2,35.1,190.2,35.1,190.2s10.303-54-35.1-74.801
	C221.951,273.9,148.25,304.6,130.451,326.6z"/>
<path fill="#C1272D" d="M315.449,246.5c11.604,65.8-40.3,129.201-107.697,141.1c-58,10.4-137-31.5-148.603-97.3
	c-14.103-79.6,37-129,107.697-141.1C237.652,137.1,301.85,169.6,315.449,246.5z"/>
<path fill="#F0F0E6" d="M326.45,224.7c12.197,69.2-44.999,136.299-118.999,149.399c-63.5,11.301-149.7-32.199-161.9-101.398
	C30.751,188.9,86.95,136.5,164.551,123.3C242.152,110,312.152,143.7,326.45,224.7z"/>
<g id="mouth">
	<path fill="#F0F0E6" d="M233.75,338.4c3.1,18.5-0.5,34.896-23.2,38.301C188.449,380,179.25,366.5,176.25,348
		c-3.103-18.5,7.3-35.7,23.199-38.299C215.35,307.1,230.75,319.9,233.75,338.4z"/>
	<path fill="#42100B" d="M227.55,334.9c3.603,16.1,0.7,31-17.104,34.396c-16.896,3.2-26.497-7.8-30.102-23.896
		c-3.6-16.104,4.103-31.5,17.103-34.4C210.55,308.201,223.951,318.9,227.55,334.9z"/>
	<path fill="#ED1E79" d="M215.55,348.1L215.55,348.1c0-0.101,0-0.199,0-0.3c0-3.1-2.5-5.6-5.604-5.6c-1.603,0-3,0.698-4.103,1.799
		c-1-1.601-2.697-2.601-4.697-2.601c-2.896,0-5.303,2.201-5.603,5.101c-0.104,0.701-0.104,2.399,1.3,5.201
		c2.303,4.799,7.2,7.5,7.2,7.5s5.5-1.4,9.2-6.101C215.75,350,215.55,348.1,215.55,348.1z"/>
</g>
<ellipse transform="matrix(0.9857 -0.1685 0.1685 0.9857 -50.7085 40.632)" fill="#C2AB81" cx="214.063" cy="319.107" rx="16.199" ry="15.7"/>
<ellipse transform="matrix(0.9857 -0.1685 0.1685 0.9857 -51.9924 35.7409)" fill="#F0F0E6" cx="184.583" cy="324.201" rx="16.2" ry="15.7"/>
<path fill="#C2AB81" d="M178.55,220.7c-31.5,5.4-67.897,53.7-84.7,95.1C86.951,332.9,92.652,344.4,92.652,344.4
	s-42.897-29.104-48.698-76.9c-6.199-50.9,7.396-122.9,118.396-144c111.7-21.3,159.897,58.3,164.801,101.8
	c6.7,58.7-20.698,86-20.698,86s-0.8-19.7-11.498-32.399C279.75,260.701,214.55,214.5,178.55,220.7z"/>
<path fill="#C2AB81" d="M133.652,138.2c0,0-82.603-61.2-94.896-56.8c-12.399,4.3,7.698,158.2,7.698,158.2L133.652,138.2z"/>
<path fill="#C2AB81" d="M198.05,124.1c0,0,57.603-85.1,70.7-85.1c13.097,0,45.3,151.8,45.3,151.8L198.05,124.1z"/>
<line fill="none" stroke="#000000" stroke-width="3" stroke-miterlimit="10" x1="200.85" y1="330.5" x2="198.25" y2="314.701"/>
<path fill="none" stroke="#000000" stroke-width="3" stroke-linecap="round" stroke-miterlimit="10" d="M171.25,332
	c0,0,6.896,8.201,14.896,6.801c9.104-1.6,14.3-8.301,14.3-8.301s7.397,6.301,18.304,3c11.396-3.6,11.396-12.1,11.396-12.1"/>
<path fill="#EDADB3" d="M199.152,318.3c-5.803,1.699-16.896-4.899-18.396-11.7c-0.802-3.601,6.103-9.199,13.8-10.5
	c7.7-1.3,16.104,1.7,16.803,5.604C212.652,308.5,204.951,316.6,199.152,318.3z"/>
<path fill="#564331" d="M152.25,125.8c0,0,16.196,95.5,28.396,94.9c8.5-0.4-6.303-99.2-6.303-99.2s-5,0.2-12.397,1.6
	C154.85,124.5,152.25,125.8,152.25,125.8z"/>
<path fill="#564331" d="M179.75,120.7c0,0,9.896,81.7,15.696,87.9c8.7,9.2,4.104-88.9,4.104-88.9L179.75,120.7z"/>
<path fill="#564331" d="M146.25,126.8c0,0,19.8,79.7,16.396,87.5c-5.102,11.5-35.396-81.6-35.396-81.6L146.25,126.8z"/>
<path fill="#564331" d="M46.55,281.5c0,0,32.7-7.699,34-4.799c2.7,6-29.604,17.1-29.604,17.1L46.55,281.5z"/>
<path fill="#564331" d="M57.05,305c0,0,25.3-18.199,28.5-15c3.2,3.201-20.397,27.602-20.397,27.602L57.05,305z"/>
<path fill="#564331" d="M327.85,229.1c0,0-33.801,4-34.101,7.1c-0.604,6.5,34.601,6.8,34.601,6.8L327.85,229.1z"/>
<path fill="#564331" d="M327.85,256.6c0,0-30.103-8.5-32.101-4.5c-2,4.104,29.799,19.5,29.799,19.5L327.85,256.6z"/>
<path d="M161.652,281.1c0,0,1.104-56.7-41.603-53.396c-42.103,3.1-48.397,39.3-48.397,39.3s8.5,45.896,51.897,38.5
	C151.152,300.8,161.652,281.1,161.652,281.1z"/>
<ellipse transform="matrix(-0.9857 0.1685 -0.1685 -0.9857 278.9297 510.1728)" fill="#756445" cx="117.819" cy="266.921" rx="38.199" ry="37.002"/>
<circle cx="120.451" cy="262.4" r="29.7"/>
<path d="M219.152,268.201c0,0-19.896-53.101,21.5-64.201c40.802-11,58.697,21.1,58.697,21.1s7.2,46.101-36.197,53.5
	C235.652,283.3,219.152,268.201,219.152,268.201z"/>
<ellipse transform="matrix(0.9857 -0.1685 0.1685 0.9857 -36.8296 46.5509)" fill="#756445" cx="255.874" cy="240.284" rx="38.2" ry="37"/>
<circle cx="251.85" cy="235.9" r="29.7"/>
<path fill="#EDD6C5" d="M268.25,44.7c-5.7-1.9-35.5,49.4-36.801,57.7c-1.302,8.3,21.5-1,21.5-1s-12.899,7.6-16.399,10.9
	c-3.5,3.3,9.3-0.9,9.3-0.9s-8.6,4.9-7.3,8.7c1.3,3.8,7.2-1.2,7.2-1.2s-11.7,11.7-0.4,13.6c23.7,4.1,51.803,36.6,53.4,31.5
	C302.652,151.1,276.152,47.4,268.25,44.7z"/>
<path fill="#EDD6C5" d="M41.25,86.2c4.6-3.4,52.897,36.3,58.699,42.7s-21.802-1-21.802-1s18.802,5.5,17,8.6
	c-1,1.9-12.198,2.1-12.198,2.1s16.302,2.6,14.302,6.3c-2.104,3.7-10.398,2.5-10.398,2.5s9.898,7.5-4.199,19
	c-17.801,14.5-32.698,46.2-32.698,46.2S34.05,91.5,41.25,86.2z"/>
<ellipse id="eyeglow1-1" transform="matrix(0.9515 -0.3077 0.3077 0.9515 -74.0721 42.8188)" fill="#FFFFFF" cx="98.757" cy="256.317" rx="11.699" ry="5.699"/>
<ellipse id="eyeglow1-2" transform="matrix(0.9168 0.3994 -0.3994 0.9168 120.0502 -32.0721)" fill="#FFFFFF" cx="136.994" cy="272.07" rx="4.3" ry="4.701"/>
<ellipse id="eyeglow2-1" transform="matrix(-0.9458 0.3247 -0.3247 -0.9458 529.4955 371.9775)" fill="#FFFFFF" cx="233.71" cy="230.17" rx="9.5" ry="5.7"/>
<ellipse id="eyeglow2-2" transform="matrix(0.8141 0.5807 -0.5807 0.8141 193.3556 -111.9393)" fill="#FFFFFF" cx="271.536" cy="246.068" rx="3.5" ry="4.7"/>
<path fill="#C1272D" d="M192.25,382.3c0,0,1.6,6.699,2.1,27c0.303,10-0.8,20.7-0.8,20.7l24,10l16.7-16c0,0-1-11-4-23
	c-2.804-11.1-6-22.699-6-22.699L192.25,382.3z"/>
<path fill="#D1726B" d="M208.05,410.8c0,0,1.103,6.4-0.3,9.8c-1.104,2.7-2.804,4.806-2.804,4.806l4.5,3.301c0,0,1.397-4,1.5-8
	c0.104-4.5-0.8-9.306-0.8-9.306L208.05,410.8z"/>
<polygon fill="#D1726B" points="213.55,411.8 215.35,423.6 217.85,424.1 223.35,416.8 219.451,413.6 217.451,417.6 215.652,410.8 
	"/>
<path fill="#D1726B" d="M213.85,407.3c-6.197,0-11.197,5-11.197,11.199c0,6.201,5,11.201,11.197,11.201c6.2,0,11.2-5,11.2-11.201
	C225.05,412.3,220.05,407.3,213.85,407.3z M213.55,428.4c-5.3,0-9.604-4.306-9.604-9.604c0-5.301,4.304-9.601,9.604-9.601
	s9.603,4.3,9.603,9.601S218.85,428.4,213.55,428.4z"/>
<line fill="none" stroke="#000000" stroke-width="6" stroke-miterlimit="10" x1="174.05" y1="241.7" x2="192.652" y2="237.9"/>
<path opacity="0.3" fill="#FFFFFF" enable-background="new    " d="M135.951,220.4l-73.698,76c0,0-21.104-36.9-3.302-52.2
	C85.35,221.4,135.951,220.4,135.951,220.4z"/>
<path fill="none" stroke="#000000" stroke-width="6" stroke-miterlimit="10" d="M180.652,256.5c5.5,32.102-16,67.701-50.698,73.602
	C95.35,336,63.75,309.4,55.152,278c-8-29.1,1.897-46.299,56-56.2C145.75,215.4,175.152,224.4,180.652,256.5z"/>
<path opacity="0.3" fill="#FFFFFF" enable-background="new    " d="M268.75,190.6l-70.4,74.9c0,0-10.896-31.5,1-47.799
	C215.75,195.1,268.75,190.6,268.75,190.6z"/>
<path fill="none" stroke="#000000" stroke-width="6" stroke-miterlimit="10" d="M194.05,250.201c5.5,32.1,37.603,58.5,72.2,52.6
	c34.696-5.9,55.601-41.5,53.301-74c-2.104-30.1-17.201-43.1-71.501-34.4C213.35,199.8,188.55,218.1,194.05,250.201z"/>
</svg>
