<?xml version="1.0" encoding="utf-8"?>
<!-- Generator: Adobe Illustrator 16.0.0, SVG Export Plug-In . SVG Version: 6.00 Build 0)  -->
<!DOCTYPE svg PUBLIC "-//W3C//DTD SVG 1.1//EN" "http://www.w3.org/Graphics/SVG/1.1/DTD/svg11.dtd">
<svg version="1.1" id="cat2" xmlns="http://www.w3.org/2000/svg" xmlns:xlink="http://www.w3.org/1999/xlink" x="0px" y="0px"
	 width="352px" height="500px" viewBox="0 0 352 500" enable-background="new 0 0 352 500" xml:space="preserve">
<ellipse fill="#938160" cx="176.6" cy="468.6" rx="33" ry="25"/>
<path fill="#F0F0E6" d="M322.6,371.602C327.198,485.6,261.5,466.6,185,466.6s-149.603,6-139.5-94.998c6.1-60.899,62-111,138.6-111
	C260.6,260.602,320.198,310.3,322.6,371.602z"/>
<path fill="#938160" d="M95.6,290.602c0,0-52,31-53,95c-1,63.998,26.3,83.301,137.3,85.301S320.6,465.8,316.6,390.8
	s-52-94.8-52-94.8h-20c0,0,62,68.8,37,115.8s-45,53.9-101,52.9s-86-5.103-94-59.101c-8-54,41-108,41-108L95.6,290.602z"/>
<path fill="#F0F0E6" d="M331.9,234.9C321.6,304.5,246,350,171.7,339.102C107.9,329.7,39.9,261.2,50.2,191.7
	C62.6,107.5,132.5,75.6,210.3,87.5C288.1,99.5,343.9,153.6,331.9,234.9z"/>
<path fill="#C2AB81" d="M192.8,184.4c-31.6-4.9-81.4,29.5-110.4,63.5c-12,14-10.197,26.8-10.197,26.8S40.7,233.5,50.4,186.4
	c10.2-50.2,45.9-114.2,157.9-99.2c112.6,15,133.2,105.8,124.2,148.6c-12.303,57.802-46.9,75-46.9,75s5.5-18.899-0.7-34.399
	C276.2,254.399,228.9,189.9,192.8,184.4z"/>
<path fill="#C2AB81" d="M176.3,91.9c0,0-59-84.1-72.1-83.9C91.1,8.2,61.4,160.5,61.4,160.5L176.3,91.9z"/>
<path fill="#C2AB81" d="M241.9,99c0,0,81.5-62.5,94-58.4c12.4,4.1-5,158.3-5,158.3L241.9,99z"/>
<path fill="#EDADB3" d="M181.5,283.5c-6-0.3-14.5-10-13.8-17c0.397-3.602,8.697-6.8,16.397-5.602c7.7,1.201,14.7,6.701,14.2,10.602
	C197.4,278.5,187.5,283.7,181.5,283.5z"/>
<path fill="#564331" d="M197.8,86c0,0-14.8,95.8-3.1,99c8.3,2.3,25.397-96.1,25.397-96.1s-4.8-1.4-12.3-2.4
	C200.7,85.6,197.8,86,197.8,86z"/>
<path fill="#564331" d="M225.5,89.9c0,0-16.5,80.7-12.9,88.4c5.3,11.4,32-83,32-83L225.5,89.9z"/>
<path fill="#564331" d="M191.8,85.1c0,0-6.4,81.9-12.1,88.2c-8.5,9.3-7.803-88.7-7.803-88.7L191.8,85.1z"/>
<path fill="#564331" d="M48.4,200.3c0,0,33.5,3.1,33.803,6.2c0.697,6.5-33.5,6.9-33.5,6.9L48.4,200.3z"/>
<path fill="#564331" d="M50.9,226c0,0,29.803-9.3,31.803-5.2c2.1,4-28.103,19.8-28.103,19.8L50.9,226z"/>
<path fill="#564331" d="M331.698,239.5c0,0-33.397-6.9-34.6-4c-2.6,6,30.6,17.399,30.6,17.399L331.698,239.5z"/>
<path fill="#564331" d="M323.1,265.602c0,0-25.8-17.602-29-14.399c-3.2,3.199,22.1,27.899,22.1,27.899L323.1,265.602z"/>
<path d="M157.7,236.3c0,0,19-53.4-22.603-63.8c-41-10.3-58.397,22.1-58.397,22.1s-6.4,46.2,37.1,52.9
	C141.5,251.7,157.7,236.3,157.7,236.3z"/>
<ellipse transform="matrix(-0.1518 0.9884 -0.9884 -0.1518 345.4633 121.744)" fill="#756445" cx="120.495" cy="209.1" rx="37" ry="38.199"/>
<circle cx="121.5" cy="217.6" r="29.7"/>
<ellipse transform="matrix(0.0091 -1 1 0.0091 -100.1356 302.9779)" fill="#FFFFFF" cx="102.803" cy="202.013" rx="5.7" ry="11.702"/>
<path d="M216.3,242.3c0,0-2.1-56.6,40.7-54.1c42.197,2.5,49,38.6,49,38.6s-7.7,46-51.2,39.302C227.1,261.8,216.3,242.3,216.3,242.3z
	"/>
<ellipse transform="matrix(0.1518 -0.9884 0.9884 0.1518 -4.2995 449.7988)" fill="#756445" cx="259.928" cy="227.405" rx="36.999" ry="38.199"/>
<circle cx="257.5" cy="235" r="29.7"/>
<ellipse transform="matrix(0.0091 1 -1 0.0091 456.7992 -23.3922)" fill="#FFFFFF" cx="240.202" cy="218.787" rx="5.7" ry="9.5"/>
<path fill="#EDD6C5" d="M333.5,45.8c-4.803-3.6-49.3,35.6-53.2,43.1s20.7,5.9,20.7,5.9s-14.601,3.1-19,5.2c-4.4,2,9.1,2.1,9.1,2.1
	s-9.7,1.9-9.7,5.9c0.103,4.1,7.2,1.1,7.2,1.1s-14.8,7.4-4.7,12.8c21.2,11.3,37.603,51.1,40.7,46.7
	C332.5,157.6,340.1,50.9,333.5,45.8z"/>
<path fill="#EDD6C5" d="M105.1,13.4c5.4-1.7,38.7,51.1,42.2,59.1s-20.4-7.9-20.4-7.9S143,75.7,140.3,78.1
	c-1.6,1.4-12.2-1.9-12.2-1.9s14.7,7.6,11.5,10.5c-3.2,2.9-10.6-1-10.6-1s7,10.2-10,16.7C97.6,110.7,73.4,136,73.4,136
	S96.6,16.2,105.1,13.4z"/>
<path opacity="0.5" enable-background="new    " d="M124.9,180.6c-31.697-5.4-50-2.7-60,11.3s-15.6,87.202,47.2,96.9
	c62.8,9.7,74.2-54.3,73.5-65.6C184.9,211.9,168.3,187.9,124.9,180.6z"/>
<path opacity="0.5" enable-background="new    " d="M271.8,198.5c31.7,5.1,48.2,13.6,53.1,30.1c4.9,16.5-13.3,87.6-75.897,76.5
	c-62.603-11-52.7-75.301-48.4-85.801C204.9,208.9,228.4,191.5,271.8,198.5z"/>
<line fill="none" stroke="#000000" stroke-width="6" stroke-miterlimit="10" x1="181.9" y1="219" x2="200.8" y2="221.2"/>
<path fill="#B3B3B3" d="M319.6,428.398c0,5.699-4.5,10.602-10,10.602h-234c-5.5,0-10-4.9-10-10.602l-11-143.101
	c0-5.698,4.5-10.3,10-10.3h250c5.5,0,10,4.5,10,10.3L319.6,428.398z"/>
<g id="leftglassglow">
	<defs>
		<clipPath id="leftglow">
			<rect id="leftglowobj" x="-10" y="161.5" width="104" height="130"/>
		</clipPath>
	</defs>
	<path id="leftglass" opacity="0.5" clip-path="url(#leftglow)" fill="#FFFFFF" enable-background="new    " d="M125.566,180.267
		c-31.697-5.4-50-2.7-60,11.3s-15.6,87.203,47.2,96.9c62.8,9.701,74.2-54.3,73.5-65.6
		C185.566,211.567,168.966,187.567,125.566,180.267z"/>
</g>
<g id="rightglassglow">
	<defs>
		<clipPath id="rightglow">
			<rect id="rightglowobj" x="150" y="161.5" width="104" height="130"/>
		</clipPath>
	</defs>
	<path id="rightglass" opacity="0.5" clip-path="url(#rightglow)" fill="#FFFFFF" enable-background="new    " d="M272.466,198.167
		c31.7,5.1,48.2,13.6,53.1,30.1c4.9,16.5-13.3,87.6-75.897,76.5c-62.603-11-52.7-75.303-48.4-85.803
		C205.566,208.567,229.066,191.167,272.466,198.167z"/>
</g>
<path fill="none" stroke="#000000" stroke-width="6" stroke-miterlimit="10" d="M183.5,235c-4.9,32.2-36.603,59.102-71.3,53.8
	C77.4,283.5,56,248.2,57.7,215.7c1.6-30.1,16.397-43.3,70.897-35.6C163.3,185,188.4,202.8,183.5,235z"/>
<path fill="none" stroke="#000000" stroke-width="6" stroke-miterlimit="10" d="M198.2,233.3c-4.9,32.2,17.1,67.4,51.897,72.7
	s65.8-21.8,74-53.398c7.5-29.202-2.7-46.302-56.897-55.302C232.4,191.5,203.1,201.1,198.2,233.3z"/>
<path fill="#B3B3B3" d="M320.3,434.8c2,5.5-0.8,10.2-6.3,10.2H66c-5.5,0-11.7-4.7-13.7-10.2L49,425.9c-2-5.5,0.8-9.899,6.3-9.899
	h248c5.5,0,11.7,4.399,13.7,9.899L320.3,434.8z"/>
<path fill="#CCCCCC" d="M60.9,366.7l-6.3-81.5c0-5.7,4.5-10.2,10-10.2h250c5.5,0,10,4.398,10,10.2l-2.3,66.5L60.9,366.7z"/>
<path fill="#F2F2F2" d="M202.7,356.2l-2.4-13.9l-5.3,6.9c-1.2-0.4-2.4-0.601-3.7-0.601c-1.6,0-3.2,0.299-4.6,0.898l-4.803-6.2
	L179.5,357.6c-0.2,0.799-0.4,1.602-0.4,2.5l-0.1,0.799l0.1-0.1v0.1c0,6.803,5.5,12.303,12.3,12.303
	c6.803,0,12.303-5.5,12.303-12.303C203.6,359.2,203.3,357.7,202.7,356.2z"/>
<path fill="#F0F0E6" d="M86.6,426.3c9.4,12.9,7.5,30.103-4.1,38.603l0,0c-11.603,8.397-28.603,4.897-38-8L6,403.8
	c-9.4-12.899-7.5-30.1,4.1-38.6l0,0c11.603-8.4,28.603-4.9,38,8L86.6,426.3z"/>
<ellipse fill="#EDADB3" cx="24.8" cy="391.3" rx="12.2" ry="12.4"/>
<ellipse fill="#EDADB3" cx="29.5" cy="371.9" rx="5.5" ry="5.6"/>
<ellipse transform="matrix(-0.3597 -0.9331 0.9331 -0.3597 -330.7674 521.4752)" fill="#EDADB3" cx="13.552" cy="374.235" rx="5.5" ry="4.8"/>
<ellipse transform="matrix(-0.4584 -0.8888 0.8888 -0.4584 -333.0382 568.6465)" fill="#EDADB3" cx="6.755" cy="385.804" rx="5.5" ry="4.3"/>
<path fill="#F0F0E6" d="M278.3,442.4c-5.2,15,1.6,31,15.2,35.697l0,0c13.6,4.7,28.8-3.697,34-18.8l21.397-62
	c5.2-15-1.6-31-15.2-35.698l0,0c-13.6-4.701-28.8,3.698-34,18.799L278.3,442.4z"/>
<ellipse transform="matrix(0.2921 0.9564 -0.9564 0.2921 605.4271 -36.3632)" fill="#EDADB3" cx="327.277" cy="390.78" rx="12.401" ry="12.2"/>
<ellipse transform="matrix(0.2921 0.9564 -0.9564 0.2921 581.7682 -38.7303)" fill="#EDADB3" cx="317.047" cy="373.623" rx="5.602" ry="5.5"/>
<path fill="#EDADB3" d="M326.6,370.602c-0.1,3.101,1.9,5.799,4.7,6.101c2.7,0.3,5-2,5.2-5.101c0.1-3.102-1.9-5.802-4.7-6.102
	C329,365.102,326.698,367.398,326.6,370.602z"/>
<path fill="#EDADB3" d="M338.6,379.7c-0.4,3.1,1.2,6,3.6,6.5c2.5,0.5,4.803-1.5,5.303-4.601c0.397-3.102-1.2-6-3.603-6.5
	C341.4,374.5,339,376.602,338.6,379.7z"/>
</svg>
