<?xml version="1.0" encoding="utf-8"?>
<!-- Generator: Adobe Illustrator 16.0.0, SVG Export Plug-In . SVG Version: 6.00 Build 0)  -->
<!DOCTYPE svg PUBLIC "-//W3C//DTD SVG 1.1//EN" "http://www.w3.org/Graphics/SVG/1.1/DTD/svg11.dtd">
<svg version="1.1" id="cat3" xmlns="http://www.w3.org/2000/svg" xmlns:xlink="http://www.w3.org/1999/xlink" x="0px" y="0px"
	 width="370px" height="500px" viewBox="0 0 370 500" enable-background="new 0 0 370 500" xml:space="preserve">
<path fill="#D2CCBD" d="M165.101,439.2c0,7-5.7,12.8-12.8,12.8h-34.5c-7,0-12.802-5.7-12.802-12.8v-0.5c0-7,5.7-12.8,12.802-12.8
	h34.5c7,0,12.8,5.699,12.8,12.8V439.2z"/>
<path opacity="0.7" fill="#FFFFFF" enable-background="new    " d="M264.801,45.8c-0.602,4.7-22.9,3.2-51.302-0.5
	c-28.3-3.6-51.898-7.9-51.3-12.7c0.602-4.7,25.102-8.1,53.5-4.5C244.101,31.7,265.401,41,264.801,45.8z"/>
<path opacity="0.7" fill="#FFFFFF" enable-background="new    " d="M147.801,34.4c1,4.7-22,10.9-51.802,17.3
	c-29.8,6.4-55,10.5-56,5.9C39,52.9,62.601,41.2,92.301,34.8C122.101,28.4,146.801,29.7,147.801,34.4z"/>
<path fill="none" stroke="#000000" stroke-width="6" stroke-miterlimit="10" d="M147.801,34.4c1,4.7-22,10.9-51.802,17.3
	c-29.8,6.4-55,10.5-56,5.9C39,52.9,62.601,41.2,92.301,34.8C122.101,28.4,146.801,29.7,147.801,34.4z"/>
<path fill="none" stroke="#000000" stroke-width="6" stroke-miterlimit="10" d="M264.801,45.8c-0.602,4.7-22.9,3.2-51.302-0.5
	c-28.3-3.6-51.898-7.9-51.3-12.7c0.602-4.7,25.102-8.1,53.5-4.5C244.101,31.7,265.401,41,264.801,45.8z"/>
<path fill="#F0F0E6" d="M293,290c-3.3,65.3-82.399,139.6-135.199,136.9c-52.802-2.7-60.5-81.5-55.9-146.7
	c3.6-50.7,48.8-116.1,101.6-113.4C256.301,169.5,296.301,224.7,293,290z"/>
<path fill="#C2AB81" d="M296.7,159.5c-7.8,63.5-76.2,110.5-143.6,98.3c-90.2-16.2-125.4-74.7-117.5-138.2
	c9.399-76.9,76-100.9,147.2-91.7C253.901,37,305.799,85.1,296.7,159.5z"/>
<path fill="#C2AB81" d="M250.301,77.3c0,0,119.498,3.7,119.698,11c0.2,7.3-41.6,42.3-74.398,72.4c-26.8,24.6-35.5,32.1-35.5,32.1
	L250.301,77.3z"/>
<path fill="#C2AB81" d="M96.101,70.1c-6.4-6.6-93.3-10.9-95-4.5S63,153.1,74.5,172.8C86,192.5,107.301,81.6,96.101,70.1z"/>
<path fill="#EDD6C5" d="M6.7,70c6.4,0.9,86.9,57.3,96.3,66.2c9.4,8.8-23-6.6-23-6.6s25.101,14.7,18.7,14.9
	c-6.398,0.2-12.8-1.4-12.8-1.4s13.8,4.1,12.1,7.8c-1.698,3.7-28,4.8-28,4.8s-23.199-26.8-40.3-48.1C12.7,86.2,1.2,69.2,6.7,70z"/>
<path fill="#EDD6C5" d="M365.601,92.5c0,0-24.2,20.8-58.102,39.1c-9,4.9-10.198,25.4-10.198,25.4s13.498-13.5,27.498-25.4
	C359.101,102.3,365.601,92.5,365.601,92.5z"/>
<path fill="#564331" d="M106,32.9c0,0,29.102,12.8,41,46.6c11.9,33.8,8.4,51.7,15.2,51.5s7.2-33,0.9-62.9S146.7,26,146.7,26
	s-12.2,0.6-21.7,2.3C115.5,29.9,106,32.9,106,32.9z"/>
<path fill="#564331" d="M156.101,26c0,0,12.2,10.6,16.398,29.9c3.802,17.6,2.302,37.9,7.802,39.1s11.198-22.8,13.5-37.9
	c2.3-15.1-0.5-27.6-0.5-27.6s-8-1.5-18.9-2.5C163.401,26,156.101,26,156.101,26z"/>
<path fill="#564331" d="M204.601,32.5c0,0,5.7,18.7,1.898,42.8c-3.8,24.1-15.3,45.5-9.198,47.7c4.6,1.7,20.898-17.2,28.5-41.9
	c7.5-24.2,6.1-38.8,6.1-38.8s-4.6-2.6-11.4-5.4C213.801,34,204.601,32.5,204.601,32.5z"/>
<path fill="#564331" d="M34.101,146.6c-0.4-5.5,1-13.7,1-13.7s3.2,15.9,13,23.8c9.2,7.5,4.398,8.5-0.9,8
	c-6.398-0.6-10.3-2.7-10.3-2.7S34.801,155.7,34.101,146.6z"/>
<path fill="#564331" d="M38.401,167.9c0,0,4.5,2.9,10.5,3.7c5.5,0.7,6.9,3.7,1.8,7.6c-3.7,2.7-6.8,4.1-6.8,4.1s-1.8-4-3-7.2
	C40,173.6,38.401,167.9,38.401,167.9z"/>
<path fill="#C2AB81" d="M312,291.6c0,45.7-42.1,67-95.698,67c-53.602,0-81.2-44.1-90.2-88.898c-12.3-61.5,44.8-80.6,98.398-80.6
	C278.101,189.1,312,245.9,312,291.6z"/>
<path fill="#C2AB81" d="M355.7,373.6c7.1,79-30.2,90.2-101.1,90.2c-70.9,0-154.5,6.9-158.5-68.3c-4-75.1,58-147.6,128.898-147.6
	C295.901,247.9,348.901,297,355.7,373.6z"/>
<path fill="#C1272D" d="M107.401,244.1c0,0,17.4,14,86.6-1.4c77.9-17.3,88.4-42.8,88.4-42.8s-6.8,37.3-79.6,57.6
	c-50.302,14-94-7.4-94-7.4L107.401,244.1z"/>
<path fill="#564331" d="M170.5,280.5c-2-3.6,10.9,0.2,61.5-9.6c38.302-7.4,53.2-24.7,53.9-17.2c0.7,7.3-9.7,22.5-45.6,34
	C209.2,297.9,175.7,289.8,170.5,280.5z"/>
<path fill="#564331" d="M293,285.4c2.302,2.8-12.8,30.199-42.3,37.3c-40.1,9.7-75.898,6.1-79-0.601c-3-6.699,32.8-5.5,73.5-17.601
	C278.401,294.7,290.301,282.1,293,285.4z"/>
<path fill="#564331" d="M299.901,315.8c2.7,1.4-3.6,34.601-37.1,48.601c-33.4,14-77.102,9.699-82,2.399c-4.9-7.3,34.6-6.1,72.3-20.7
	C290.801,331.6,296.301,314,299.901,315.8z"/>
<circle id="tail" fill="#C2AB81" cx="313.101" cy="444.4" r="36.2"/>
</svg>
