<?xml version="1.0" encoding="utf-8"?>
<!-- Generator: Adobe Illustrator 16.0.0, SVG Export Plug-In . SVG Version: 6.00 Build 0)  -->
<!DOCTYPE svg PUBLIC "-//W3C//DTD SVG 1.1//EN" "http://www.w3.org/Graphics/SVG/1.1/DTD/svg11.dtd">
<svg version="1.1" id="cat4" xmlns="http://www.w3.org/2000/svg" xmlns:xlink="http://www.w3.org/1999/xlink" x="0px" y="0px"
	 width="601.334px" height="500px" viewBox="0 0 601.334 500" enable-background="new 0 0 601.334 500" xml:space="preserve">
<path fill="#C1272D" d="M125.9,350.4L21.2,350.3C-6.4,350.3,0.9,289.8,0.9,289.8c0-27.6,22.4-49.8,50-49.8h68
	C146.5,240,139.9,348.4,125.9,350.4z"/>
<path fill="#590000" d="M134.5,294.7c0,26.6-5.8,48.8-10.7,48.8c-7.1,0-15-22.2-15-48.8c0-26.601,5.7-48.2,12.8-48.2
	C128.7,246.5,134.5,268.101,134.5,294.7z"/>
<rect x="63" y="342" fill="#C1272D" width="18" height="103"/>
<ellipse fill="#C1272D" cx="70.9" cy="441.2" rx="40.304" ry="7"/>
<path fill="#D1726B" d="M29,286v40h50v-40H29z M74.4,289l-21,20.6L34.2,289H74.4z M32,322v-30.7L53.4,313.4L75,295.4V322H32z"/>
<path fill="#D2CCBD" d="M398,171.6c19,8.5,25.896,42.4,70.896,91.9S560,335.1,545,363.6S337.6,430.2,330.9,383
	c-5-35-7.1-63.3-48-94.5C269.3,278.2,384.5,165.6,398,171.6z"/>
<g id="hand">
	<path fill="#D2CCBD" d="M166.3,281.101c-13.8-3.899-21.9-18.199-18.1-32l0,0c3.896-13.8,18.196-21.899,32-18.1L345.6,277.601
		c13.8,3.899,21.896,18.199,18.1,31.999l0,0c-3.896,13.801-18.197,21.9-32,18.104L166.3,281.101z"/>
	
		<ellipse transform="matrix(-0.0335 0.9994 -0.9994 -0.0335 411.1196 105.7549)" fill="#D2CCBD" cx="154.424" cy="251.668" rx="12.298" ry="10.999"/>
	
		<ellipse transform="matrix(-0.0335 0.9994 -0.9994 -0.0335 416.446 81.168)" fill="#D2CCBD" cx="168.975" cy="241.951" rx="12.298" ry="16.297"/>
	
		<ellipse transform="matrix(-0.1845 0.9828 -0.9828 -0.1845 450.0974 151.849)" fill="#D2CCBD" cx="162.051" cy="262.657" rx="16.297" ry="16.797"/>
</g>
<path id="postdoor" fill="#C1272D" d="M166.404,264.949c20.594,18.81,33.363,39.777,29.682,44.209
	c-5.406,6.351-28.646-2.274-49.123-21.085c-20.481-18.811-32.905-39.299-27.496-45.648
	C124.757,235.955,145.811,246.019,166.404,264.949z"/>
<path fill="#D2CCBD" d="M555.4,362.9C562.5,429.6,501.9,444.6,434,444.6c-67.9,0-102.804,8-102.804-61.699
	c0-55.101,33.304-119.697,101.2-119.697C500.3,263.2,549.5,308,555.4,362.9z"/>
<path fill="#C2AB81" d="M334.9,198.6c4.5,29.5,82.3,76.6,80,104c-3.5,42-35.5,47-24,102c6.9,33,38.601,40.104,38.601,40.104
	S560.9,450.6,566.9,429.6c18.5-64.8,6.5-152.396-94-187c-29-10-59-77-86-100C367.4,126,330.4,169.1,334.9,198.6z"/>
<path fill="#C2AB81" d="M259.2,110.4c-8-3.1-57.2-32.5-66.9-37.3c-9.6-4.9-0.4,16.1,9.9,32.4C214.4,124.9,213.8,135,214.4,140
	C215,145,277.1,117.3,259.2,110.4z"/>
<path fill="#EDD6C5" d="M188,75c0,0,13.396,27.6,24.896,40.3C224.4,128,228,145.2,226.6,145.4c-1.5,0.2-13.896-2.5-13.896-2.5
	s4-9.1-5.304-25.9C188.2,82.2,188,75,188,75z"/>
<path fill="#F0F0E6" d="M221.1,129c-35.2,24.8-33.396,99.7-42.8,122.9c-9.4,23.199,25.7,63.398,59.3,66.5
	c33.604,3,78.5,6.396,117.9-35.801c40.196-43.101,64.396-130.301-2.9-165.201C299,89.5,257.4,103.5,221.1,129z"/>
<path fill="#C2AB81" d="M378.1,136.5c0,0-86-87.4-97.8-94.1c-11.9-6.6-3,75.9-0.6,87.7C282.1,141.9,390.9,151.1,378.1,136.5z"/>
<path fill="#C2AB81" d="M187.5,201.5c0,0,84.8,25.4,105.3,46.9c48.3,50.6,28.1,61.7,28.1,61.7s62.7-16.199,73.3-87.5
	C405.5,146.8,385.3,122,318.1,106.4c-60.1-14-101.2,21.1-112.5,36.6S187.5,201.5,187.5,201.5z"/>
<path d="M226.2,240.4c0,0-14.304-47.6,7.696-58.3c24.804-12.1,42.2,20,42.2,20s4.2,41.5-16.2,48
	C242.8,255.5,226.2,240.4,226.2,240.4z"/>
<ellipse transform="matrix(0.9857 -0.1683 0.1683 0.9857 -32.838 44.9415)" fill="#756445" cx="248.702" cy="216.19" rx="23.897" ry="33.196"/>
<ellipse transform="matrix(0.9518 -0.3066 0.3066 0.9518 -54.2951 85.5723)" cx="245.218" cy="215.6" rx="15.7" ry="27.199"/>
<ellipse transform="matrix(0.912 -0.4103 0.4103 0.912 -66.8624 113.0482)" fill="#FFFFFF" cx="229.968" cy="212.311" rx="5.601" ry="4.5"/>
<path fill="#564331" d="M384.4,208.6c0,0,0-2.3-34.1-5.8c-34.2-3.5-58.7,1.5-60.4,4.7c-1.6,3.2,17.3,5.3,52,12.6
	c14.2,3,36.5,13,36.5,13L384.4,208.6z"/>
<path fill="#564331" d="M250.9,110.3c0,0-23,12.1-36.6,32.8c-13.6,20.7-22.3,50.1-17,47.1c3.3-1.9,2.7-15.4,26.5-43.9
	c22.5-26.9,45.3-41,45.3-41s-7.1,1.4-11,2.6C254.1,109.1,250.9,110.3,250.9,110.3z"/>
<path fill="#564331" d="M261.3,107.1c0,0-16.2,12.1-28.1,30.7c-11.9,18.5-16,38-12.2,33c4.8-6.1,9.5-17.7,24.6-34.7
	c15.104-16.9,30.9-32.4,30.9-32.4L261.3,107.1z"/>
<path fill="#564331" d="M253.3,109.3c0,0-20.8,8.7-28.8,14c-23.8,15.9-29.604,45.2-29.604,45.2s4.5-10.7,18.2-26.5
	C226.8,126.3,253.3,109.3,253.3,109.3z"/>
<path fill="#564331" d="M375.4,243.1c0,0-11-6-40.896-14.1c-38.9-10.6-42.4-7.7-46.2-5.7s21.7,10.8,47.396,24.2
	c11.7,6.101,31.2,17.601,31.2,17.601L375.4,243.1z"/>
<path fill="#EDD6C5" d="M278.2,46.2c-3.601,3.5-0.301,56.9-0.101,62.9s6.7,17.8,18.9,23.4c12.196,5.6,50.1,10.1,53.5,5.2
	c3.396-4.9-15.304-10.3-15.304-10.3s8.4,2.5,7.5-0.4c-0.896-2.9-6.896-7.2-6.896-7.2s12.8,6,10-0.2
	C343.1,113.4,282.9,41.7,278.2,46.2z"/>
<path fill="#C2AB81" d="M207.3,271.101c3.6,7.899,1.3,16.601-5.2,19.601c-6.396,2.898-14.2-1.5-18.7-8.9
	c-4.896-8.1-4.6-15.199,1.9-18.1C191.7,260.7,203.7,263.2,207.3,271.101z"/>
<path fill="#EDADB3" d="M177.6,254c2.4-0.7,13.5-0.6,13.9,2.9c0.396,3.5-9.5,21.3-11.9,18C177.2,271.7,172.3,255.7,177.6,254z"/>
<path opacity="0.7" fill="#FFFFFF" enable-background="new    " d="M201.7,198.8l3.896,53.9c0,0-27.5-44.6-22.896-57.2
	C187.3,182.9,201.7,198.8,201.7,198.8z"/>
<path fill="none" stroke="#000000" stroke-width="6" stroke-miterlimit="10" d="M217.9,223.6c14.9,29.6,25.604,63.7,18.304,67
	c-3.4,1.5-25.4-27.301-40.4-56.801c-14.9-29.6-16.2-38.5-9.1-42.1C193.9,188,203,194,217.9,223.6z"/>
<ellipse fill="#C2AB81" cx="569.4" cy="410.6" rx="31.5" ry="32"/>
<path fill="#564331" d="M453.9,228.6c0,0,5,21,0,43c-5,21.999-12,35.999-6,39.999s21-19.999,26-38.999s3.3-29,3.3-29s-5-0.7-11.5-5
	C458.5,233.8,453.9,228.6,453.9,228.6z"/>
<path fill="#564331" d="M495.5,251.9c0,0,4.696,21.3,2,44c-2.7,22.699-11.304,40-7.304,42.699c4,2.697,24-24.699,28-44.699
	s0.7-27.301,0.7-27.301s-2.3-4-11-8.301C501.198,254.9,495.5,251.9,495.5,251.9z"/>
<path fill="#C1272D" d="M399.5,157.2c0,0,4.896,49.5-23.304,104.7c-28,54.699-60,65.3-60,65.3l-6.696-12.7
	c0,0,34.8-19.3,60.696-72.7C392.9,195.2,399.5,157.2,399.5,157.2z"/>
<polygon fill="#C1272D" points="304.9,315.2 316.198,327.2 314.198,383.2 321.5,400.6 344.9,379.2 325.5,320.6 321.5,306.6 "/>
<ellipse fill="#F0F0E6" cx="330.5" cy="428.2" rx="12.3" ry="11"/>
<path fill="#D2CCBD" d="M392.198,432.5c0,6.9-6.3,12.5-14,12.5h-31.3c-7.7,0-14-5.6-14-12.5l0,0c0-6.9,6.3-12.5,14-12.5h31.3
	C385.9,420,392.198,425.6,392.198,432.5L392.198,432.5z"/>
<path fill="#F0F0E6" d="M380.4,427.3C377,441.3,362.9,449.8,349,446.4l0,0c-14-3.4-22.5-17.5-19.104-31.4l23.4-96.2
	c3.396-14,17.5-22.5,31.396-19.1l0,0c14,3.399,22.5,17.5,19.104,31.399L380.4,427.3z"/>
<path fill="#C2AB81" d="M352.198,322.9c0,0,13.304,2.699,28.7,23.3c12.4,16.7,11.3,32.7,11.3,32.7l39.7-92.301l-44-41
	c0,0-17,16-25,42C355.4,311.9,352.198,322.9,352.198,322.9z"/>
<ellipse fill="#F0F0E6" cx="328.5" cy="433.2" rx="12.3" ry="11"/>
<path fill="#F0F0E6" d="M374,435.5c0,6.9-5.604,12.5-12.5,12.5h-28c-6.9,0-12.5-5.6-12.5-12.5l0,0c0-6.9,5.6-12.5,12.5-12.5h28
	C368.4,423,374,428.6,374,435.5L374,435.5z"/>
<path fill="#D1726B" d="M319.4,374.1c0,0,0.4,6.4-0.1,9.7c-0.4,2.7-1.104,4.7-1.104,4.7l1.7,3.3c0,0,0.5-4,0.604-8
	c0.1-4.5-0.304-9.3-0.304-9.3L319.4,374.1z"/>
<polygon fill="#D1726B" points="321.4,375.1 322.1,386.8 323.1,387.3 325.198,380.1 323.698,376.8 322.8,380.8 322.1,374.1 "/>
<path fill="#D1726B" d="M321.698,370.6c-2.396,0-4.3,5-4.3,11.2s1.9,11.2,4.3,11.2c2.4,0,4.304-5,4.304-11.2
	C325.9,375.6,324,370.6,321.698,370.6z M321.5,391.7c-2,0-3.7-4.3-3.7-9.601c0-5.303,1.7-9.603,3.7-9.603s3.696,4.3,3.696,9.603
	C325.198,387.4,323.5,391.7,321.5,391.7z"/>
<path fill="#564331" d="M415.5,176.6c0,0,10.3,26,3.3,52c-7,26-14,43-8,44s22-19,28-30c6-11,5-25,5-25L415.5,176.6z"/>
</svg>
