<?xml version="1.0" encoding="utf-8"?>
<!-- Generator: Adobe Illustrator 16.0.0, SVG Export Plug-In . SVG Version: 6.00 Build 0)  -->
<!DOCTYPE svg PUBLIC "-//W3C//DTD SVG 1.1//EN" "http://www.w3.org/Graphics/SVG/1.1/DTD/svg11.dtd">
<svg version="1.1" id="clip" xmlns="http://www.w3.org/2000/svg" xmlns:xlink="http://www.w3.org/1999/xlink" x="0px" y="0px"
	 width="800px" height="800px" viewBox="0 0 800 800" enable-background="new 0 0 800 800" xml:space="preserve">
<path fill="#E6E6E6" d="M191,150.1c0,2.1-1.5,3.9-3.6,3.9H95.7c-2.1,0-3.7-1.7-3.7-3.9v-0.3c0-2.1,1.6-3.9,3.7-3.9h91.6
	c2.1,0,3.6,1.7,3.6,3.9V150.1z"/>
<path fill="#B3B3B3" d="M191,150.4c0,1.1-1.5,2.6-3.6,2.6H95.7c-2.1,0-3.7-1.4-3.7-2.6v-0.1c0-1.1,1.6-2.3,3.7-2.3h91.6
	c2.1,0,3.6,1.1,3.6,2.3V150.4z"/>
<path fill="#999999" d="M191,149.4c0,1.1-1.5,2.6-3.6,2.6H95.7c-2.1,0-3.7-1.4-3.7-2.6v-0.1c0-1.1,1.6-2.3,3.7-2.3h91.6
	c2.1,0,3.6,1.1,3.6,2.3V149.4z"/>
<path fill="#666666" d="M191,148.4c0,1.1-1.5,2.6-3.6,2.6H95.7c-2.1,0-3.7-1.4-3.7-2.6v-0.1c0-1.1,1.6-2.3,3.7-2.3h91.6
	c2.1,0,3.6,1.1,3.6,2.3V148.4z"/>
<path fill="#333333" d="M190,148.6c0,0.9-1.8,1.4-3.9,1.4H97c-2.1,0-4-0.4-4-1.4v-0.1c0-0.9,1.9-1.5,4-1.5h89.2
	c2.1,0,3.9,0.6,3.9,1.5V148.6z"/>
<path fill="#CCCCCC" d="M111.7,80.5c2,2.4,5,6,5.2,6.9c0.2,1.3,1.3,16.5,2.5,32.5h4.1c-1.2-16-2.3-31.3-2.5-32.6
	c-0.2-1.5-2-3.9-6-8.7c-2.3-2.8-5.2-6.3-5.7-7.6c-0.2-0.7,0-2.5,1.5-4.5c1.5-1.9,5-5.1,12.4-5.4c10.6-0.4,17.3,7.8,17.8,9.3
	c-0.1,0.8-1.2,3.4-2.1,5.4c-2.1,5-3.5,8.4-3.2,10.4c0.2,1.3,3.7,16.8,7.5,33.8h4.2c-3.8-17-7.3-32.1-7.5-33.9c-0.2-1.3,1.8-6,3-8.8
	c1.8-4.3,2.5-5.9,2.3-7c-0.2-1.6-2.7-5-6.5-7.8c-3.3-2.5-8.8-5.4-16.1-5.1c-9,0.4-13.4,4.4-15.3,6.8c-1.9,2.5-2.7,5.3-2,7.4
	C106,73.5,108.1,76.2,111.7,80.5z"/>
<path fill="#4D4D4D" d="M113.3,80.8c1.9,2.3,3.2,5.2,3.7,6.3c0.8,1.8,2.5,24.7,3.8,44.9h2.4c-1.2-20.1-2.7-43-3.6-45
	c-0.6-1.4-2-3.9-4.1-6.3c-2.8-3.4-7.6-8.8-7.8-10.8c-0.3-4.5,5.1-9.2,14.5-10c6.2-0.5,11.5,2.8,13.9,4.5c3.4,2.3,6,4.9,6.2,6.2
	c0.2,0.8-1.5,3.5-2.6,5.8c-1.6,3.1-3.8,6.3-3.9,8.4c-0.1,2.3,5.4,26.3,10.4,47.2h2c-4.9-21.2-10.4-45.6-10.3-46.9
	c0.1-1.8,2-4.6,3.4-7.4c1.8-3.4,2.6-6,2.3-7.2c-0.4-2.2-3-5.1-6.4-7.4c-2.7-1.8-8.3-4.9-15.3-4.3c-11,0.9-16.5,7-16.1,12.2
	C106.2,73.6,110,76.8,113.3,80.8z"/>
<path fill="#FFFFFF" d="M145.6,125h1c-4.4-19-8.7-38.4-8.7-38.6c-0.2-1.7,0.5-4,0.5-4l-0.3-1.1c-0.1,0.1-1.5,3.3-1.2,5.2
	C136.9,86.7,141.2,106,145.6,125z"/>
<path fill="#FFFFFF" d="M110.6,75.3c2.7,3.3,7.7,9.5,8.5,11.8c0.4,1.3,1.6,17.9,2.6,35.9h1c-1.1-18-2.2-34.7-2.6-36
	c-0.8-2.5-5.7-8.5-8.7-12.1c-0.6-0.8-1.1-1.4-1.5-1.8c-1.8-2.3-2.2-3.8-2.2-3.9l-0.5,0.9c0,0-0.1,1,1.9,3.4
	C109.4,73.9,109.9,74.6,110.6,75.3z"/>
<path fill="#FFFFFF" d="M141.2,78.2l0.2-2.5c0,0,2.1-3.6,1.8-5.2c-0.5-3.3-9-11.1-19.4-11.4c-8.8-0.2-14.2,5.3-14.2,5.3l-2.2,1.2
	c0.2-0.3,5.8-7.5,16.3-7.4c10.3,0.1,20,8.1,20.5,12.1C144.6,72.6,141.5,77.6,141.2,78.2z"/>
<rect x="94" y="88" width="94" height="60"/>
<path fill="#FFFFFF" d="M160,145.5c0,0.4-0.4,0.5-1,0.5h-35c-0.6,0-1-0.1-1-0.5l0,0c0-0.4,0.4-0.5,1-0.5h35
	C159.6,145,160,145.1,160,145.5L160,145.5z"/>
<path fill="#FFFFFF" d="M187,92c0,0.6-0.4,1-1,1H96c-0.6,0-1-0.4-1-1l0,0c0-0.6,0.4-1,1-1h90C186.6,91,187,91.4,187,92L187,92z"/>
<path fill="#CCCCCC" d="M161.7,149.8c-0.7-0.4-7.2-3.9-8-8.4c-0.8-4.3-6.4-82.6-6.4-85.7c0-2.2,1.8-6,4.6-11.4
	c1.1-2.1,2.5-5.1,2.8-5.9c-0.3-1.7-5.6-10.9-15.9-10.6c-7.2,0.2-11,3.7-12.7,5.7c-1.8,2.2-2.2,4.2-2.1,4.9c0.3,1.5,2.6,5.4,4.4,8.6
	c3.2,5.5,4.6,8.1,4.6,9.8c0,3.1-4.7,79.8-5.4,83.7c-0.8,4.7-5.9,8.5-6.5,9l-2.4-3.2l1.2,1.6l-1.2-1.6c1.2-0.9,4.4-3.8,4.9-6.4
	c0.6-3.9,5.3-79.9,5.3-83c-0.1-1-2.5-5.1-4.1-7.8c-2.8-4.8-4.5-7.9-4.9-9.9c-0.4-2.3,0.7-5.4,2.9-8.2c2.1-2.6,6.9-6.9,15.7-7.2
	c7.1-0.2,12,3.1,14.8,5.9c3.3,3.2,5.2,6.9,5.2,8.7c0,1.2-0.8,3-3.2,7.7c-1.6,3.1-4.1,8.2-4.1,9.7c0,4.2,5.8,82.1,6.3,85
	c0.3,1.9,3.7,4.4,6,5.6L161.7,149.8z"/>
<path fill="#4D4D4D" d="M160.8,149.1c-0.2-0.1-5.3-2.7-6.5-7.5c-0.1-0.5-7.3-82.9-6.5-87.4c0.4-2.3,2.9-5.9,4.9-9.3
	c1.4-2.5,3.4-5.4,3.3-6.3c-0.1-1.5-2.2-4.4-5.2-7c-2.1-1.9-6.8-5.7-12.8-5.2c-9.3,0.7-15.1,5.7-15.4,10.8c-0.1,2.2,3.7,8.3,6,12.1
	c1.6,2.8,2.7,5.6,3.1,7.1c1,3.8-4.6,74.7-5.3,83c-0.6,6.7-3.8,7.9-4,7.9l-1.1-3.2l0.2,1l-0.2-1c0.1,0,2.5-0.6,2.9-5.7
	c1.2-12.6,5.9-78.7,5-82c-0.3-1.2-1.2-4.5-2.7-7.1c-2.6-4.5-5.9-8.2-5.7-11c0.3-5.8,6.5-12.4,17.2-13.2c6.8-0.5,11.8,2.9,14.2,5
	c3,2.7,5.1,5.9,5.2,8.4c0.1,1.4-1.1,4.2-3.2,8c-1.8,3.1-4,6.1-4.3,8.1c-0.4,2.4,5.6,82.5,6.5,86.6c1,3.8,5.6,5.8,5.6,5.9
	L160.8,149.1z"/>
<path fill="#FFFFFF" d="M153.7,46.9l0.5-2.8c0,0,2.5-3.9,2.5-5.7c0-3.7-7.2-12.5-17.1-13c-8.5-0.4-14.5,5.6-14.5,5.6l-2.2,1.3
	c0.3-0.3,6.6-8.2,16.7-7.9c9.9,0.3,18.1,9.4,18.1,13.8C157.8,40.7,154.2,46.3,153.7,46.9z"/>
<path fill="#FFFFFF" d="M158.6,146.3c-0.3-0.3-3.1-3.5-3.6-5c-0.6-1.8-6.5-85-6.5-85.7c0-2.1,1.8-5.4,1.9-5.6l0.1,1.2
	c0,0-1,2.5-1,4.4c0,0.6,5.9,83.1,6.5,85.4c0.4,1.1,2.6,3.7,3.4,4.6L158.6,146.3z"/>
<path fill="#FFFFFF" d="M121.4,147.2l-0.7-0.7c0,0,3.6-3.9,4.4-6.8c0.9-3.3,6.6-80.5,6.2-83.5c-0.4-2.6-4.4-9.4-6.6-13.1
	c-0.5-0.9-0.9-1.6-1.2-2.1c-1.5-2.7-1.3-3.8-1.3-3.8l0.6-1c0,0,0.2,1.8,1.6,4.3c0.3,0.5,0.7,1.2,1.2,2c2.3,4,6.3,10.6,6.7,13.5
	c0.4,3-5.3,80.6-6.2,83.9C125.1,143,121.5,147,121.4,147.2z"/>
<path d="M125,146c0,2.2-1.8,4-4,4H96c-2.2,0-4-1.8-4-4l0,0c0-2.2,1.8-4,4-4h25C123.2,142,125,143.8,125,146L125,146z"/>
<path d="M191,146c0,2.2-1.8,4-4,4h-25c-2.2,0-4-1.8-4-4l0,0c0-2.2,1.8-4,4-4h25C189.2,142,191,143.8,191,146L191,146z"/>
<path d="M154,147c0,2.2-1.8,4-4,4h-17c-2.2,0-4-1.8-4-4l0,0c0-2.2,1.8-4,4-4h17C152.2,143,154,144.8,154,147L154,147z"/>
<path fill="#FFFFFF" d="M123,145c0,0.6-0.4,1-1,1H93c-0.6,0-1-0.4-1-1l0,0c0-0.6,0.4-1,1-1h29C122.6,144,123,144.4,123,145L123,145z
	"/>
<path fill="#FFFFFF" d="M191,145c0,0.6-0.4,1-1,1h-29c-0.6,0-1-0.4-1-1l0,0c0-0.6,0.4-1,1-1h29C190.6,144,191,144.4,191,145L191,145
	z"/>
<path fill="#FFFFFF" d="M151,143.5c0,0.4-0.4,0.5-1,0.5h-17c-0.6,0-1-0.1-1-0.5l0,0c0-0.4,0.4-0.5,1-0.5h17
	C150.6,143,151,143.1,151,143.5L151,143.5z"/>
<g>
</g>
<g>
</g>
<g>
</g>
<g>
</g>
<g>
</g>
<g>
</g>
<g>
</g>
<g>
</g>
<g>
</g>
<g>
</g>
<g>
</g>
<g>
</g>
<g>
</g>
<g>
</g>
<g>
</g>
</svg>
