<svg xmlns="http://www.w3.org/2000/svg" viewBox="0 0 249.354 220.064">
  <defs>
    <style>
      .cls-1 {
        fill: #fff;
        opacity: 0.4;
      }
    </style>
  </defs>
  <path id="Union_9" data-name="Union 9" class="cls-1" d="M75.929,216.333a201.752,201.752,0,0,1-39.516-10.176,112.759,112.759,0,0,1-15.181-7.027A64.5,64.5,0,0,1,9.77,191.063a33.7,33.7,0,0,1-7.244-8.913A20.159,20.159,0,0,1,0,172.58V89.7a20.154,20.154,0,0,1,2.526-9.569A33.672,33.672,0,0,1,9.77,71.219a64.47,64.47,0,0,1,11.461-8.066q2.978-1.683,6.337-3.271-2.887-2.443-5.378-4.888a64.421,64.421,0,0,1-8.984-10.757,33.7,33.7,0,0,1-4.69-10.484,20.141,20.141,0,0,1,.037-9.9,21.01,21.01,0,0,1,6.664-10.284A42.051,42.051,0,0,1,28.3,6.1,89.751,89.751,0,0,1,46.833,1.542,159.8,159.8,0,0,1,69.818,0c21.7,0,46.287,3.515,71.108,10.165A304.677,304.677,0,0,1,186.7,26.294a201.758,201.758,0,0,1,35.537,20.057,112.816,112.816,0,0,1,12.844,10.716,64.484,64.484,0,0,1,8.984,10.758,33.716,33.716,0,0,1,4.69,10.485,20.148,20.148,0,0,1-.037,9.9q-.054.2-.113.4.032.545.032,1.09V172.58a20.159,20.159,0,0,1-2.526,9.57,33.7,33.7,0,0,1-7.244,8.913,64.46,64.46,0,0,1-11.461,8.066,112.757,112.757,0,0,1-15.181,7.027,201.791,201.791,0,0,1-39.516,10.176,304.71,304.71,0,0,1-48.39,3.731A304.71,304.71,0,0,1,75.929,216.333Zm38.23-60.8c-13.812.966-25.768,8.567-33.367,14.774a89.341,89.341,0,0,0-13.314,13.372,88.906,88.906,0,0,0,13.994,10.741c7.834,4.9,19.929,10.741,33.064,10.741,1.03,0,2.068-.037,3.085-.107,22.3-1.56,40.051-20.336,44.962-26.053a47.109,47.109,0,0,0,4.367,3.2,40.55,40.55,0,0,0,6.85,3.6,28.446,28.446,0,0,0,8.349,2.047l-1.683-24.067a28.4,28.4,0,0,0-7.983,3.19,40.552,40.552,0,0,0-6.282,4.514,47,47,0,0,0-3.793,3.683c-5.244-4.63-24-19.737-45.164-19.736C116.213,155.43,115.175,155.466,114.159,155.537ZM19.315,77.479c-5.942,5.375-8.956,11.085-8.956,16.97s3.013,11.6,8.956,16.97c5.74,5.193,13.957,9.855,24.423,13.858,21.523,8.235,50.14,12.77,80.581,12.77s59.059-4.535,80.581-12.77c10.465-4,18.683-8.666,24.423-13.858a30.034,30.034,0,0,0,7-8.878,51.392,51.392,0,0,1-7.359,3.421,89.727,89.727,0,0,1-18.529,4.558,159.69,159.69,0,0,1-22.986,1.542c-21.7,0-46.286-3.514-71.107-10.165A304.6,304.6,0,0,1,70.571,85.768,204.717,204.717,0,0,1,36.415,66.7,67.963,67.963,0,0,0,19.315,77.479ZM65.205,8.123a45.085,45.085,0,0,0-11.451,2.705A34.383,34.383,0,0,0,44.7,15.876a21.292,21.292,0,0,0-5.76,6.681,12.8,12.8,0,0,0,1.547,14.716A21.273,21.273,0,0,0,47.51,42.61a34.382,34.382,0,0,0,9.905,3.055,43.593,43.593,0,0,0,6.817.528,47.464,47.464,0,0,0,4.948-.262,45.068,45.068,0,0,0,11.451-2.706,34.368,34.368,0,0,0,9.053-5.047,21.3,21.3,0,0,0,5.76-6.681,13.19,13.19,0,0,0,1.57-7.6A13.193,13.193,0,0,0,93.9,16.781a21.311,21.311,0,0,0-7.022-5.337,34.421,34.421,0,0,0-9.905-3.055,43.714,43.714,0,0,0-6.813-.527A47.552,47.552,0,0,0,65.205,8.123ZM61.2,40.042a34.8,34.8,0,0,1-13.152-2.354c-4.948-2.05-7.88-5.158-8.258-8.753s1.844-7.244,6.258-10.278,10.489-5.087,17.109-5.783a45.926,45.926,0,0,1,4.789-.254,34.8,34.8,0,0,1,13.149,2.354c4.947,2.05,7.88,5.158,8.258,8.753S87.507,30.972,83.094,34,72.6,39.091,65.986,39.788a45.908,45.908,0,0,1-4.785.254Z"/>
</svg>
